solid OpenSCAD_Model
  facet normal -1 0 0
    outer loop
      vertex 0 0 0
      vertex 0 5 10
      vertex 0 5 0
    endloop
  endfacet
  facet normal -1 -0 0
    outer loop
      vertex 0 5 10
      vertex 0 0 0
      vertex 0 0 10
    endloop
  endfacet
  facet normal -1 0 0
    outer loop
      vertex 0 0 40
      vertex 0 5 50
      vertex 0 5 40
    endloop
  endfacet
  facet normal -1 -0 0
    outer loop
      vertex 0 5 50
      vertex 0 0 40
      vertex 0 0 50
    endloop
  endfacet
  facet normal 0 0 1
    outer loop
      vertex 30 5 50
      vertex 8 0 50
      vertex 30 0 50
    endloop
  endfacet
  facet normal 0 0 1
    outer loop
      vertex 30 5 50
      vertex 7.42705 1.76336 50
      vertex 8 0 50
    endloop
  endfacet
  facet normal 0 0 1
    outer loop
      vertex 30 5 50
      vertex 5.92705 2.85317 50
      vertex 7.42705 1.76336 50
    endloop
  endfacet
  facet normal -0 0 1
    outer loop
      vertex 0 5 50
      vertex 5.92705 2.85317 50
      vertex 30 5 50
    endloop
  endfacet
  facet normal 0 0 1
    outer loop
      vertex 5.92705 2.85317 50
      vertex 0 5 50
      vertex 4.07295 2.85317 50
    endloop
  endfacet
  facet normal 0 0 1
    outer loop
      vertex 0 5 50
      vertex 2.57295 1.76336 50
      vertex 4.07295 2.85317 50
    endloop
  endfacet
  facet normal 0 0 1
    outer loop
      vertex 0 0 50
      vertex 2.57295 1.76336 50
      vertex 0 5 50
    endloop
  endfacet
  facet normal 0 0 1
    outer loop
      vertex 2.57295 1.76336 50
      vertex 0 0 50
      vertex 2 0 50
    endloop
  endfacet
  facet normal 1 -0 0
    outer loop
      vertex 30 0 50
      vertex 30 5 0
      vertex 30 5 50
    endloop
  endfacet
  facet normal 1 0 0
    outer loop
      vertex 30 5 0
      vertex 30 0 50
      vertex 30 0 0
    endloop
  endfacet
  facet normal 0 1 0
    outer loop
      vertex 30 5 50
      vertex 20 5 40
      vertex 0 5 50
    endloop
  endfacet
  facet normal 0 1 0
    outer loop
      vertex 30 5 50
      vertex 20 5 10
      vertex 20 5 40
    endloop
  endfacet
  facet normal 0 1 -0
    outer loop
      vertex 30 5 0
      vertex 20 5 10
      vertex 30 5 50
    endloop
  endfacet
  facet normal 0 1 0
    outer loop
      vertex 0 5 0
      vertex 20 5 10
      vertex 30 5 0
    endloop
  endfacet
  facet normal 0 1 0
    outer loop
      vertex 20 5 10
      vertex 0 5 0
      vertex 0 5 10
    endloop
  endfacet
  facet normal 0 1 0
    outer loop
      vertex 0 5 50
      vertex 20 5 40
      vertex 0 5 40
    endloop
  endfacet
  facet normal 0 0 -1
    outer loop
      vertex 8 0 0
      vertex 30 5 0
      vertex 30 0 0
    endloop
  endfacet
  facet normal 0 0 -1
    outer loop
      vertex 7.42705 1.76336 0
      vertex 30 5 0
      vertex 8 0 0
    endloop
  endfacet
  facet normal 0 0 -1
    outer loop
      vertex 5.92705 2.85317 0
      vertex 30 5 0
      vertex 7.42705 1.76336 0
    endloop
  endfacet
  facet normal 0 0 -1
    outer loop
      vertex 0 5 0
      vertex 5.92705 2.85317 0
      vertex 4.07295 2.85317 0
    endloop
  endfacet
  facet normal 0 0 -1
    outer loop
      vertex 0 0 0
      vertex 2.57295 1.76336 0
      vertex 2 0 0
    endloop
  endfacet
  facet normal 0 0 -1
    outer loop
      vertex 0 5 0
      vertex 2.57295 1.76336 0
      vertex 0 0 0
    endloop
  endfacet
  facet normal 0 0 -1
    outer loop
      vertex 5.92705 2.85317 0
      vertex 0 5 0
      vertex 30 5 0
    endloop
  endfacet
  facet normal 0 0 -1
    outer loop
      vertex 2.57295 1.76336 0
      vertex 0 5 0
      vertex 4.07295 2.85317 0
    endloop
  endfacet
  facet normal 0 -1 0
    outer loop
      vertex 8 0 10
      vertex 8 0 0
      vertex 20 0 10
    endloop
  endfacet
  facet normal 0 -1 0
    outer loop
      vertex 20 0 40
      vertex 8 0 50
      vertex 8 0 40
    endloop
  endfacet
  facet normal 0 -1 0
    outer loop
      vertex 8 0 50
      vertex 20 0 40
      vertex 30 0 50
    endloop
  endfacet
  facet normal 0 -1 0
    outer loop
      vertex 20 0 10
      vertex 30 0 50
      vertex 20 0 40
    endloop
  endfacet
  facet normal 0 -1 0
    outer loop
      vertex 20 0 10
      vertex 30 0 0
      vertex 30 0 50
    endloop
  endfacet
  facet normal 0 -1 0
    outer loop
      vertex 30 0 0
      vertex 20 0 10
      vertex 8 0 0
    endloop
  endfacet
  facet normal 0 -1 0
    outer loop
      vertex 0 0 0
      vertex 2 0 10
      vertex 0 0 10
    endloop
  endfacet
  facet normal 0 -1 -0
    outer loop
      vertex 2 0 10
      vertex 0 0 0
      vertex 2 0 0
    endloop
  endfacet
  facet normal 0 -1 0
    outer loop
      vertex 0 0 40
      vertex 2 0 50
      vertex 0 0 50
    endloop
  endfacet
  facet normal 0 -1 -0
    outer loop
      vertex 2 0 50
      vertex 0 0 40
      vertex 2 0 40
    endloop
  endfacet
  facet normal 0 0 -1
    outer loop
      vertex 8 0 40
      vertex 20 5 40
      vertex 20 0 40
    endloop
  endfacet
  facet normal 0 0 -1
    outer loop
      vertex 7.42705 1.76336 40
      vertex 20 5 40
      vertex 8 0 40
    endloop
  endfacet
  facet normal 0 0 -1
    outer loop
      vertex 5.92705 2.85317 40
      vertex 20 5 40
      vertex 7.42705 1.76336 40
    endloop
  endfacet
  facet normal 0 0 -1
    outer loop
      vertex 0 5 40
      vertex 5.92705 2.85317 40
      vertex 4.07295 2.85317 40
    endloop
  endfacet
  facet normal 0 0 -1
    outer loop
      vertex 0 0 40
      vertex 2.57295 1.76336 40
      vertex 2 0 40
    endloop
  endfacet
  facet normal 0 0 -1
    outer loop
      vertex 0 5 40
      vertex 2.57295 1.76336 40
      vertex 0 0 40
    endloop
  endfacet
  facet normal 0 0 -1
    outer loop
      vertex 5.92705 2.85317 40
      vertex 0 5 40
      vertex 20 5 40
    endloop
  endfacet
  facet normal 0 0 -1
    outer loop
      vertex 2.57295 1.76336 40
      vertex 0 5 40
      vertex 4.07295 2.85317 40
    endloop
  endfacet
  facet normal -1 0 0
    outer loop
      vertex 20 0 10
      vertex 20 5 40
      vertex 20 5 10
    endloop
  endfacet
  facet normal -1 -0 0
    outer loop
      vertex 20 5 40
      vertex 20 0 10
      vertex 20 0 40
    endloop
  endfacet
  facet normal 0 0 1
    outer loop
      vertex 20 5 10
      vertex 8 0 10
      vertex 20 0 10
    endloop
  endfacet
  facet normal 0 0 1
    outer loop
      vertex 20 5 10
      vertex 7.42705 1.76336 10
      vertex 8 0 10
    endloop
  endfacet
  facet normal 0 0 1
    outer loop
      vertex 20 5 10
      vertex 5.92705 2.85317 10
      vertex 7.42705 1.76336 10
    endloop
  endfacet
  facet normal -0 0 1
    outer loop
      vertex 0 5 10
      vertex 5.92705 2.85317 10
      vertex 20 5 10
    endloop
  endfacet
  facet normal 0 0 1
    outer loop
      vertex 5.92705 2.85317 10
      vertex 0 5 10
      vertex 4.07295 2.85317 10
    endloop
  endfacet
  facet normal 0 0 1
    outer loop
      vertex 0 5 10
      vertex 2.57295 1.76336 10
      vertex 4.07295 2.85317 10
    endloop
  endfacet
  facet normal 0 0 1
    outer loop
      vertex 0 0 10
      vertex 2.57295 1.76336 10
      vertex 0 5 10
    endloop
  endfacet
  facet normal 0 0 1
    outer loop
      vertex 2.57295 1.76336 10
      vertex 0 0 10
      vertex 2 0 10
    endloop
  endfacet
  facet normal -0.951057 -0.309017 0
    outer loop
      vertex 8 0 0
      vertex 7.42705 1.76336 10
      vertex 7.42705 1.76336 0
    endloop
  endfacet
  facet normal -0.951057 -0.309017 0
    outer loop
      vertex 7.42705 1.76336 10
      vertex 8 0 0
      vertex 8 0 10
    endloop
  endfacet
  facet normal 0 -1 0
    outer loop
      vertex 4.07295 2.85317 0
      vertex 5.92705 2.85317 10
      vertex 4.07295 2.85317 10
    endloop
  endfacet
  facet normal 0 -1 -0
    outer loop
      vertex 5.92705 2.85317 10
      vertex 4.07295 2.85317 0
      vertex 5.92705 2.85317 0
    endloop
  endfacet
  facet normal -0.587784 -0.809018 0
    outer loop
      vertex 5.92705 2.85317 0
      vertex 7.42705 1.76336 10
      vertex 5.92705 2.85317 10
    endloop
  endfacet
  facet normal -0.587784 -0.809018 -0
    outer loop
      vertex 7.42705 1.76336 10
      vertex 5.92705 2.85317 0
      vertex 7.42705 1.76336 0
    endloop
  endfacet
  facet normal 0.587784 -0.809018 0
    outer loop
      vertex 2.57295 1.76336 0
      vertex 4.07295 2.85317 10
      vertex 2.57295 1.76336 10
    endloop
  endfacet
  facet normal 0.587784 -0.809018 0
    outer loop
      vertex 4.07295 2.85317 10
      vertex 2.57295 1.76336 0
      vertex 4.07295 2.85317 0
    endloop
  endfacet
  facet normal 0.951057 -0.309017 0
    outer loop
      vertex 2 0 10
      vertex 2.57295 1.76336 0
      vertex 2.57295 1.76336 10
    endloop
  endfacet
  facet normal 0.951057 -0.309017 0
    outer loop
      vertex 2.57295 1.76336 0
      vertex 2 0 10
      vertex 2 0 0
    endloop
  endfacet
  facet normal -0.951057 -0.309017 0
    outer loop
      vertex 8 0 40
      vertex 7.42705 1.76336 50
      vertex 7.42705 1.76336 40
    endloop
  endfacet
  facet normal -0.951057 -0.309017 0
    outer loop
      vertex 7.42705 1.76336 50
      vertex 8 0 40
      vertex 8 0 50
    endloop
  endfacet
  facet normal 0 -1 0
    outer loop
      vertex 4.07295 2.85317 40
      vertex 5.92705 2.85317 50
      vertex 4.07295 2.85317 50
    endloop
  endfacet
  facet normal 0 -1 -0
    outer loop
      vertex 5.92705 2.85317 50
      vertex 4.07295 2.85317 40
      vertex 5.92705 2.85317 40
    endloop
  endfacet
  facet normal -0.587784 -0.809018 0
    outer loop
      vertex 5.92705 2.85317 40
      vertex 7.42705 1.76336 50
      vertex 5.92705 2.85317 50
    endloop
  endfacet
  facet normal -0.587784 -0.809018 -0
    outer loop
      vertex 7.42705 1.76336 50
      vertex 5.92705 2.85317 40
      vertex 7.42705 1.76336 40
    endloop
  endfacet
  facet normal 0.587784 -0.809018 0
    outer loop
      vertex 2.57295 1.76336 40
      vertex 4.07295 2.85317 50
      vertex 2.57295 1.76336 50
    endloop
  endfacet
  facet normal 0.587784 -0.809018 0
    outer loop
      vertex 4.07295 2.85317 50
      vertex 2.57295 1.76336 40
      vertex 4.07295 2.85317 40
    endloop
  endfacet
  facet normal 0.951057 -0.309017 0
    outer loop
      vertex 2 0 50
      vertex 2.57295 1.76336 40
      vertex 2.57295 1.76336 50
    endloop
  endfacet
  facet normal 0.951057 -0.309017 0
    outer loop
      vertex 2.57295 1.76336 40
      vertex 2 0 50
      vertex 2 0 40
    endloop
  endfacet
endsolid OpenSCAD_Model
